/* XPM */
static char *top_right_inactive[] = {
/* columns rows colors chars-per-pixel */
"23 23 5 1 ",
"  c black",
". c #646464",
"X c #BCEFD1",
"o c #C0C0C0",
"O c white",
/* pixels */
"ooooooooooooooooooooooo",
"OOOOOOOOOOOOOOOOOOOOOO ",
"ooooooooooooooooooooo. ",
"ooooooooooooooooooooo. ",
"XXXXXXXXXXXXXXXXXXXoo. ",
"XXXXXXXXXXXXXXXXXXXoo. ",
"XXXXXXXXXXXXXXXXXXXoo. ",
"XXXXXXXXXXXXXXXXXXXoo. ",
"XXXXXXXXXXXXXXXXXXXoo. ",
"XXXXXXXXXXXXXXXXXXXoo. ",
"XXXXXXXXXXXXXXXXXXXoo. ",
"XXXXXXXXXXXXXXXXXXXoo. ",
"XXXXXXXXXXXXXXXXXXXoo. ",
"XXXXXXXXXXXXXXXXXXXoo. ",
"XXXXXXXXXXXXXXXXXXXoo. ",
"XXXXXXXXXXXXXXXXXXXoo. ",
"XXXXXXXXXXXXXXXXXXXoo. ",
"XXXXXXXXXXXXXXXXXXXoo. ",
"XXXXXXXXXXXXXXXXXXXoo. ",
"XXXXXXXXXXXXXXXXXXXoo. ",
"XXXXXXXXXXXXXXXXXXXoo. ",
"XXXXXXXXXXXXXXXXXXXoo. ",
"XXXXXXXXXXXXXXXXXXXoo. "
};
