/* XPM */
static char * bottom_left_active_xpm[] = {
"23 23 5 1",
" 	c None",
".	c #C3C7CB",
"+	c #FFFFFF",
"@	c #646464",
"#	c #000000",
".+..                   ",
".+..                   ",
".+..                   ",
".+..                   ",
".+..                   ",
".+..                   ",
".+..                   ",
".+..                   ",
".+..                   ",
".+..                   ",
".+..                   ",
".+..                   ",
".+..                   ",
".+..                   ",
".+..                   ",
".+..                   ",
".+..                   ",
".+..                   ",
".+..                   ",
".+.....................",
".+.....................",
".@@@@@@@@@@@@@@@@@@@@@@",
"#######################"};
