/* XPM */
static char * maximize_toggled_inactive_xpm[] = {
"20 23 6 1",
" 	c None",
".	c #3F3F3F",
"+	c #FFFFFF",
"@	c #C0C0C0",
"#	c #848484",
"$	c #000000",
"                    ",
"                    ",
"                    ",
"                    ",
"....................",
".++++++++++++++++++.",
".+@@@@@@@@@@@@@@@@#.",
".+@@@@@@@@@@@@@@@##.",
".+@@@@@@@$@@@@@@@##.",
".+@@@@@@$$$@@@@@@##.",
".+@@@@@$$$$$@@@@@##.",
".+@@@@$$$$$$$@@@@##.",
".+@@@@@@@@@@@@@@@##.",
".+@@@@@@@@@@@@@@@##.",
".+@@@@$$$$$$$@@@@##.",
".+@@@@@$$$$$@@@@@##.",
".+@@@@@@$$$@@@@@@##.",
".+@@@@@@@$@@@@@@@##.",
".+@@@@@@@@@@@@@@@##.",
".+@@@@@@@@@@@@@@@##.",
".+@################.",
".+#################.",
"...................."};
