/* XPM */
static char * menu_pressed_xpm[] = {
"20 23 5 1",
" 	c None",
".	c #A7A7A7",
"+	c #000000",
"@	c #FFFFFF",
"#	c #CDCDCD",
"                    ",
"                    ",
"                    ",
"                    ",
"                    ",
"  ................. ",
"  ................. ",
"  ................. ",
"  ................. ",
"  ................. ",
"  ................. ",
"  ................. ",
"  ...++++++++++.... ",
"  ...+@@@@@@@@+#... ",
"  ...++++++++++#... ",
"  ....##########... ",
"  ................. ",
"  ................. ",
"  ................. ",
"  ................. ",
"  ................. ",
"  ................. ",
"                    "};
