/* XPM */
static char *stick_toggled_active[] = {
/* columns rows colors chars-per-pixel */
"20 23 3 1 ",
"  c None",
". c black",
"X c white",
/* pixels */
"                    ",
"                    ",
"                    ",
"                    ",
"                    ",
"                    ",
"                    ",
"                    ",
"                    ",
"                    ",
"                    ",
"     ..........     ",
"     .XXXXXXXX.     ",
"     .XXXXXXXX.     ",
"     ..........     ",
"                    ",
"                    ",
"                    ",
"                    ",
"                    ",
"                    ",
"                    ",
"                    "
};
