/* XPM */
static char * bullet_white_xpm[] = {
"12 12 2 1",
" 	c None",
".	c #FFFFFF",
"            ",
"            ",
"     .      ",
"     ..     ",
"   .....    ",
"   ......   ",
"   ......   ",
"   .....    ",
"     ..     ",
"     .      ",
"            ",
"            "};
