/* XPM */
static char *button_pressed[] = {
/* columns rows colors chars-per-pixel */
"22 22 5 1 ",
"  c None",
". c black",
"X c #808080",
"o c #8E8E8E",
"O c #C0C0C0",
/* pixels */
"o....................o",
".XXXXXXXXXXXXXXXXXXXX.",
".XOOOOOOOOOOOOOOOOOOO.",
".XOOOOOOOOOOOOOOOOOOO.",
".XOOOOOOOOOOOOOOOOOOO.",
".XOOOOOOOOOOOOOOOOOOO.",
".XOOOOOOOOOOOOOOOOOOO.",
".XOOOOOOOOOOOOOOOOOOO.",
".XOOOOOOOOOOOOOOOOOOO.",
".XOOOOOOOOOOOOOOOOOOO.",
".XOOOOOOOOOOOOOOOOOOO.",
".XOOOOOOOOOOOOOOOOOOO.",
".XOOOOOOOOOOOOOOOOOOO.",
".XOOOOOOOOOOOOOOOOOOO.",
".XOOOOOOOOOOOOOOOOOOO.",
".XOOOOOOOOOOOOOOOOOOO.",
".XOOOOOOOOOOOOOOOOOOO.",
".XOOOOOOOOOOOOOOOOOOO.",
".XOOOOOOOOOOOOOOOOOOO.",
".XOOOOOOOOOOOOOOOOOOO.",
".XOOOOOOOOOOOOOOOOOOO.",
"o....................o"
};
