/* XPM */
static char * close_prs_xpm[] = {
"22 22 5 1",
" 	c None",
".	c #C3C7CB",
"+	c #000000",
"@	c #868A8E",
"#	c #FFFFFF",
"......................",
"......................",
"..++++++++++++++++++++",
"..+@@@@@@@@@@@@@@@@@@@",
"..+@@@@@@@@@@@@@@@@@@@",
"..+@@@@@@@@@@@@@@@@@@@",
"..+@@@@@@@@@@@@@@@@@@@",
"..+@@@@@@@@@@@@@@@@@@@",
"..+@@@@@@@@@@@@@@@@@@@",
"..+@@@@@@@@@@@@@@@@@@@",
"..+@@@@@@@@@@@@@@@@@@@",
"..+@@@@@@#######@@@@@@",
"..+@@@@@@#+++++#.@@@@@",
"..+@@@@@@#######.@@@@@",
"..+@@@@@@@.......@@@@@",
"..+@@@@@@@@@@@@@@@@@@@",
"..+@@@@@@@@@@@@@@@@@@@",
"..+@@@@@@@@@@@@@@@@@@@",
"..+@@@@@@@@@@@@@@@@@@@",
"..+@@@@@@@@@@@@@@@@@@@",
"..+@@@@@@@@@@@@@@@@@@@",
"..+@@@@@@@@@@@@@@@@@@@"};
