/* XPM */
static char * max_ufo_xpm[] = {
"22 22 5 1",
" 	c None",
".	c #000000",
"+	c #C3C7CB",
"@	c #FFFFFF",
"#	c #868A8E",
".+++++++++++++++++++++",
".+++++++++++++++++++++",
"....................++",
".@@@@@@@@@@@@@@@@@#.++",
".@+++++++++++++++##.++",
".@+++++++++++++++##.++",
".@+++++++++++++++##.++",
".@+++++++++++++++##.++",
".@+++++++++++++++##.++",
".@+++++++++++++++##.++",
".@+++++++.+++++++##.++",
".@++++++...++++++##.++",
".@+++++.....+++++##.++",
".@++++.......++++##.++",
".@+++++++++++++++##.++",
".@+++++++++++++++##.++",
".@+++++++++++++++##.++",
".@+++++++++++++++##.++",
".@+++++++++++++++##.++",
".@+++++++++++++++##.++",
".@#################.++",
".##################.++"};
