/* XPM */
static char * max_prs_xpm[] = {
"22 22 4 1",
" 	c None",
".	c #000000",
"+	c #C3C7CB",
"@	c #868A8E",
".+++++++++++++++++++++",
".+++++++++++++++++++++",
"....................++",
".@@@@@@@@@@@@@@@@@@.++",
".@+++++++++++++++++.++",
".@+++++++++++++++++.++",
".@+++++++++++++++++.++",
".@+++++++++++++++++.++",
".@+++++++++++++++++.++",
".@+++++++++++++++++.++",
".@+++++++++++++++++.++",
".@+++++++++++++++++.++",
".@++++++++.++++++++.++",
".@+++++++...+++++++.++",
".@++++++.....++++++.++",
".@+++++.......+++++.++",
".@+++++++++++++++++.++",
".@+++++++++++++++++.++",
".@+++++++++++++++++.++",
".@+++++++++++++++++.++",
".@+++++++++++++++++.++",
".@+++++++++++++++++.++"};
