/* XPM */
static char * min_ufo_xpm[] = {
"22 22 5 1",
" 	c None",
".	c #C3C7CB",
"+	c #000000",
"@	c #FFFFFF",
"#	c #868A8E",
"......................",
"......................",
"++++++++++++++++++++++",
"@@@+@@@@@@@@@@@@@@@@@#",
"@@@+@...............##",
"@@@+@...............##",
"@@@+@...............##",
"@@@+@...............##",
"@@@+@...............##",
"@@@+@...............##",
"@@@+@...............##",
"@@@+@....+++++++....##",
"@@@+@.....+++++.....##",
"@@@+@......+++......##",
"@@@+@.......+.......##",
"@@@+@...............##",
"@@@+@...............##",
"@@@+@...............##",
"@@@+@...............##",
"@@@+@...............##",
"@@@+@#################",
"@@@+##################"};
