/* XPM */
static char * left_active_xpm[] = {
"4 32 3 1",
" 	c None",
".	c #C0C0C0",
"+	c #FFFFFF",
".+..",
".+..",
".+..",
".+..",
".+..",
".+..",
".+..",
".+..",
".+..",
".+..",
".+..",
".+..",
".+..",
".+..",
".+..",
".+..",
".+..",
".+..",
".+..",
".+..",
".+..",
".+..",
".+..",
".+..",
".+..",
".+..",
".+..",
".+..",
".+..",
".+..",
".+..",
".+.."};
