/* XPM */
static char * menu_inactive_xpm[] = {
"20 23 5 1",
" 	c None",
".	c #C0C0C0",
"+	c #000000",
"@	c #FFFFFF",
"#	c #868A8E",
"                    ",
"                    ",
"                    ",
"                    ",
" ...................",
" ...................",
" ...................",
" ...................",
" ...................",
" ...................",
" ...................",
" ...++++++++++......",
" ...+@@@@@@@@+#.....",
" ...++++++++++#.....",
" ....##########.....",
" ...................",
" ...................",
" ...................",
" ...................",
" ...................",
" ...................",
" ...................",
" ..................."};
