/* XPM */
static char * right_inactive_xpm[] = {
"4 32 4 1",
" 	c None",
".	c #C0C0C0",
"+	c #646464",
"@	c #000000",
"..+@",
"..+@",
"..+@",
"..+@",
"..+@",
"..+@",
"..+@",
"..+@",
"..+@",
"..+@",
"..+@",
"..+@",
"..+@",
"..+@",
"..+@",
"..+@",
"..+@",
"..+@",
"..+@",
"..+@",
"..+@",
"..+@",
"..+@",
"..+@",
"..+@",
"..+@",
"..+@",
"..+@",
"..+@",
"..+@",
"..+@",
"..+@"};
