/* XPM */
static char * shade_toggled_active_xpm[] = {
"20 23 3 1",
" 	c None",
".	c #000000",
"+	c #FFFFFF",
"                    ",
"                    ",
"                    ",
"                    ",
"                    ",
"                    ",
"                    ",
"                    ",
"                    ",
"                    ",
"      ..........    ",
"      .++++++++.    ",
"       .++++++.     ",
"        .++++.      ",
"         .++.       ",
"          ..        ",
"                    ",
"                    ",
"                    ",
"                    ",
"                    ",
"                    ",
"                    "};
