/* XPM */
static char * title_5_active_xpm[] = {
"8 23 5 1",
" 	c None",
".	c #C0C0C0",
"+	c #FFFFFF",
"@	c #408080",
"#	c #000000",
"........",
"++++++++",
"........",
"........",
"@@@@@@@@",
"@@@@@@@@",
"@@@@@@@@",
"@@@@@@@@",
"@@@@@@@@",
"@@@@@@@@",
"@@@@@@@@",
"@@@@@@@@",
"@@@@@@@@",
"@@@@@@@@",
"@@@@@@@@",
"@@@@@@@@",
"@@@@@@@@",
"@@@@@@@@",
"@@@@@@@@",
"@@@@@@@@",
"@@@@@@@@",
"@@@@@@@@",
"########"};
